<svg xmlns="http://www.w3.org/2000/svg" xmlns:xlink="http://www.w3.org/1999/xlink" style="width: 0; height: 0; visibility: hidden; position: absolute;" aria-hidden="true">
<symbol  viewBox='0 0 128 128' id='facebook-circle'>
    <circle cx="64" cy="64" fill="var(--icon-color)" r="64"></circle><path fill="var(--socialstroke-color)" d="M56.3 104V67.9h-13v-13h13V43.2c0-12 7-19.1 17.7-19.1 5.2 0 9.4.5 10.6.7v13.5H76c-5.8 0-6.9 2.9-6.9 7V55h15l-2.2 12.9H69.1V104H56.3z"></path>
  </symbol><symbol  viewBox='0 0 128 128' id='instagram-circle'>
    <circle cx="64" cy="64" fill="var(--icon-color)" r="64"></circle><path fill="var(--socialstroke-color)" d="M82.3 104H45.7c-12 0-21.7-9.7-21.7-21.7V45.7c0-12 9.7-21.7 21.7-21.7h36.6c12 0 21.7 9.7 21.7 21.7v36.6c0 12-9.7 21.7-21.7 21.7zM45.7 30.7a15 15 0 00-15 15v36.6a15 15 0 0015 15h36.6a15 15 0 0015-15V45.7a15 15 0 00-15-15H45.7z"></path><path fill="var(--socialstroke-color)" d="M64 84a20 20 0 110-40 20 20 0 010 40zm0-33.3a13.3 13.3 0 100 26.7 13.3 13.3 0 000-26.7z"></path><circle fill="var(--socialstroke-color)" cx="85.3" cy="42.8" r="4.6"></circle>
  </symbol><symbol  viewBox='0 0 128 128' id='twitter-circle'>
    <circle cx="64" cy="64" fill="var(--icon-color)" r="64"></circle><path fill="var(--socialstroke-color)" d="M105 40.2c-3 1.3-6.1 2.2-9.4 2.6 3.4-2 6-5.3 7.2-9.1a32.9 32.9 0 01-10.4 4 16.4 16.4 0 00-28 15 46.6 46.6 0 01-33.8-17.2 16.3 16.3 0 005 22c-2.6-.2-5.2-1-7.4-2.1v.2c0 8 5.7 14.5 13.2 16a16.4 16.4 0 01-7.4.3c2 6.6 8.1 11.3 15.3 11.4A33 33 0 0125 90.1a46.4 46.4 0 0071.8-41.4c3.2-2.3 6-5.2 8.2-8.5"></path>
  </symbol><symbol  viewBox='0 0 128 128' id='whatsapp-circle'>
    <circle cx="64" cy="64" fill="var(--icon-color)" r="64"></circle><path fill="var(--socialstroke-color)" d="M92.3 35.5a39.9 39.9 0 00-62.7 48L24 104.3l21.1-5.5a39.9 39.9 0 0047.2-63.2M64.2 96.8a33 33 0 01-16.9-4.6l-1.2-.8-12.5 3.3 3.3-12.2-.8-1.2a33 33 0 0128-50.8 32.9 32.9 0 0133.2 33.2 33.2 33.2 0 01-33.1 33M82.3 72c-1-.5-5.9-3-6.8-3.3-.9-.3-1.5-.5-2.2.5l-3.2 4c-.5.6-1.1.7-2.1.2s-4.2-1.6-8-5c-3-2.6-5-5.8-5.6-6.8s0-1.6.5-2l1.5-1.8c.5-.6.6-1 1-1.7.3-.6.1-1.2-.1-1.7a108 108 0 01-3-7.4c-.9-2-1.7-1.7-2.3-1.7h-2c-.6 0-1.7.2-2.6 1.2-.9 1-3.5 3.4-3.5 8.3s3.6 9.6 4 10.3c.6.7 7.1 10.7 17.1 15a58 58 0 005.7 2.1c2.4.8 4.5.7 6.2.4 2-.3 6-2.4 6.8-4.7.8-2.3.8-4.3.5-4.8-.2-.4-.9-.6-1.9-1.1"></path>
  </symbol></svg>