<svg xmlns="http://www.w3.org/2000/svg" xmlns:xlink="http://www.w3.org/1999/xlink" style="width: 0; height: 0; visibility: hidden; position: absolute;" aria-hidden="true"><symbol  viewBox='0 0 513.3 513.3' id='search'>
    <path d="M495 404.5L410.6 320a233 233 0 0025.6-102.4C436.2 97.3 338.9 0 218.6 0S1 97.3 1 217.6s97.2 217.6 217.6 217.6A233 233 0 00321 409.6l84.4 84.5a61.9 61.9 0 0089.6 0c23-25.6 23-64 0-89.6zM218.6 384c-92.2 0-166.4-74.2-166.4-166.4S126.4 51.2 218.6 51.2 385 125.4 385 217.6 310.7 384 218.6 384z"></path>
  </symbol><symbol  viewBox='0 0 511.3 511.3' id='shopping-cart'>
    <path d="M490.3 106.7H90.5l-6-66.2a21 21 0 00-20.8-19.2H21a21 21 0 100 42h23.5C57.3 206.3 24-163 68.6 332.4A80.8 80.8 0 0099 387.2a63.7 63.7 0 10110 17.5h114.9a63.7 63.7 0 1059.9-42H149a39 39 0 01-35.8-23.7l335.6-19.7c9.2-.5 17-7 19.1-15.9l42.7-170.6a21 21 0 00-20.4-26.1zM149 448a21.7 21.7 0 110-43.4 21.7 21.7 0 010 43.4zm234.7 0a21.7 21.7 0 110-43.4 21.7 21.7 0 010 43.4zM431 278.3l-323.4 19-13.3-148.6h369.1z"></path>
  </symbol><symbol  viewBox='0 0 512 512' id='user'>
    <path d="M437 331a255 255 0 00-97.3-61 148 148 0 10-167.4 0A255 255 0 0075 331 254.3 254.3 0 000 512h40c0-119.1 96.9-216 216-216s216 96.9 216 216h40a254 254 0 00-75-181zm-181-75a108.1 108.1 0 010-216 108.1 108.1 0 010 216z"></path>
  </symbol></svg>